<svg xmlns="http://www.w3.org/2000/svg" xmlns:xlink="http://www.w3.org/1999/xlink" width="512" zoomAndPan="magnify" viewBox="0 0 384 383.999986" height="512" preserveAspectRatio="xMidYMid meet" version="1.0"><defs><g/></defs><rect x="-38.4" width="460.8" fill="#ffffff" y="-38.399999" height="460.799983" fill-opacity="1"/><rect x="-38.4" width="460.8" fill="#09090b" y="-38.399999" height="460.799983" fill-opacity="1"/><g fill="#fafafa" fill-opacity="1"><g transform="translate(13.853441, 286.031964)"><g><path d="M 101.5625 -201.5625 L 125.96875 -201.5625 L 125.96875 -57.46875 C 125.96875 -38.113281 120.769531 -23.238281 110.375 -12.84375 C 99.976562 -2.445312 86.019531 2.75 68.5 2.75 C 57.476562 2.75 47.664062 0.734375 39.0625 -3.296875 C 30.46875 -7.328125 23.710938 -13.082031 18.796875 -20.5625 C 13.878906 -28.039062 11.421875 -36.929688 11.421875 -47.234375 L 35.4375 -47.234375 C 35.4375 -38.710938 38.550781 -31.859375 44.78125 -26.671875 C 51.007812 -21.484375 58.914062 -18.890625 68.5 -18.890625 C 79.0625 -18.890625 87.210938 -22.1875 92.953125 -28.78125 C 98.691406 -35.375 101.5625 -44.9375 101.5625 -57.46875 Z M 101.5625 -201.5625 "/></g></g></g><g fill="#fafafa" fill-opacity="1"><g transform="translate(164.236327, 286.031964)"><g><path d="M 162.1875 -138.5625 C 157.925781 -151.820312 150.921875 -162.289062 141.171875 -169.96875 C 131.429688 -177.644531 119.28125 -181.484375 104.71875 -181.484375 C 92.769531 -181.484375 81.90625 -178.398438 72.125 -172.234375 C 62.351562 -166.066406 54.582031 -156.976562 48.8125 -144.96875 C 43.039062 -132.957031 40.15625 -118.226562 40.15625 -100.78125 C 40.15625 -83.320312 43.070312 -68.585938 48.90625 -56.578125 C 54.75 -44.578125 62.65625 -35.492188 72.625 -29.328125 C 82.601562 -23.160156 93.828125 -20.078125 106.296875 -20.078125 C 117.640625 -20.078125 127.691406 -22.488281 136.453125 -27.3125 C 145.210938 -32.132812 152.082031 -38.957031 157.0625 -47.78125 C 162.050781 -56.601562 164.679688 -67.050781 164.953125 -79.125 L 111.796875 -79.125 L 111.796875 -100.78125 L 188.5625 -100.78125 L 188.5625 -79.125 C 188.5625 -62.53125 185.035156 -48.097656 177.984375 -35.828125 C 170.929688 -23.554688 161.21875 -14.054688 148.84375 -7.328125 C 136.476562 -0.609375 122.296875 2.75 106.296875 2.75 C 88.441406 2.75 72.773438 -1.445312 59.296875 -9.84375 C 45.816406 -18.238281 35.316406 -30.175781 27.796875 -45.65625 C 20.285156 -61.144531 16.53125 -79.519531 16.53125 -100.78125 C 16.53125 -122.039062 20.285156 -140.410156 27.796875 -155.890625 C 35.316406 -171.378906 45.71875 -183.320312 59 -191.71875 C 72.289062 -200.113281 87.53125 -204.3125 104.71875 -204.3125 C 118.882812 -204.3125 131.738281 -201.539062 143.28125 -196 C 154.832031 -190.457031 164.445312 -182.75 172.125 -172.875 C 179.800781 -163 184.890625 -151.5625 187.390625 -138.5625 Z M 162.1875 -138.5625 "/></g></g></g></svg>
